<?xml version="1.0" encoding="UTF-8" standalone="no"?><!DOCTYPE svg PUBLIC "-//W3C//DTD SVG 1.1//EN" "http://www.w3.org/Graphics/SVG/1.1/DTD/svg11.dtd"><svg width="100%" height="100%" viewBox="0 0 16 10" version="1.1" xmlns="http://www.w3.org/2000/svg" xmlns:xlink="http://www.w3.org/1999/xlink" xml:space="preserve" xmlns:serif="http://www.serif.com/" style="fill-rule:evenodd;clip-rule:evenodd;stroke-linejoin:round;stroke-miterlimit:1.41421;"><path d="M15.5,9l-15,0c-0.276,0 -0.5,-0.224 -0.5,-0.5l0,-8c0,-0.276 0.224,-0.5 0.5,-0.5l15,0c0.276,0 0.5,0.224 0.5,0.5l0,8c0,0.276 -0.224,0.5 -0.5,0.5Zm-12.5,-3l0,-2l-2,0l0,1.731c0,0.148 0.121,0.269 0.269,0.269l1.731,0Zm1,-2l0,2l2,0l0,-2l-2,0Zm3,0l0,2l2,0l0,-2l-2,0Zm3,0l0,2l2,0l0,-2l-2,0Zm5,0l-2,0l0,2l1.731,0c0.148,0 0.269,-0.121 0.269,-0.269l0,-1.731Zm-0.269,-3l-1.731,0l0,2l2,0l0,-1.731c0,-0.148 -0.121,-0.269 -0.269,-0.269Zm-4.731,0l0,2l2,0l0,-2l-2,0Zm-3,0l0,2l2,0l0,-2l-2,0Zm-3,0l0,2l2,0l0,-2l-2,0Zm-3,2l2,0l0,-2l-1.731,0c-0.148,0 -0.269,0.121 -0.269,0.269l0,1.731Z" style="fill:#6a6a6a;"/><circle cx="2" cy="9" r="1" style="fill:#4a4a4a;"/><circle cx="12" cy="9" r="1" style="fill:#4a4a4a;"/><circle cx="9" cy="9" r="1" style="fill:#4a4a4a;"/></svg>