<?xml version="1.0" encoding="UTF-8" standalone="no"?><!DOCTYPE svg PUBLIC "-//W3C//DTD SVG 1.1//EN" "http://www.w3.org/Graphics/SVG/1.1/DTD/svg11.dtd"><svg width="100%" height="100%" viewBox="0 0 800 600" version="1.1" xmlns="http://www.w3.org/2000/svg" xmlns:xlink="http://www.w3.org/1999/xlink" xml:space="preserve" xmlns:serif="http://www.serif.com/" style="fill-rule:evenodd;clip-rule:evenodd;stroke-linejoin:round;stroke-miterlimit:1.41421;"><rect x="149" y="0" width="102" height="49.171" style="fill:#92f67b;"/><circle cx="47" cy="17" r="17" style="fill:#fff;"/><clipPath id="_clip1"><circle cx="47" cy="17" r="17"/></clipPath><g clip-path="url(#_clip1)"><circle cx="47" cy="17" r="15" style="fill:#f01b48;"/><clipPath id="_clip2"><circle cx="47" cy="17" r="15"/></clipPath><g clip-path="url(#_clip2)"><path d="M54.228,10.558c-0.218,-1.009 -0.91,-1.412 -1.951,-1.814c-1.016,-0.405 -3.461,-0.874 -5.275,-0.889c-1.814,0.012 -4.261,0.486 -5.286,0.885c-1.032,0.401 -1.728,0.805 -1.937,1.814l-0.779,5.584l0,7.7l1.344,0l0,1.203c-0.006,1.472 2.301,1.472 2.305,0l0,-1.203l8.706,0l0,1.203c-0.004,1.472 2.305,1.472 2.305,0l0,-1.203l1.34,0l0,-7.7l-0.777,-5.58l0.005,0Zm-10.521,-1.291l6.59,0c0.644,0 0.644,0.907 0,0.909l-6.587,0c-0.651,0 -0.651,-0.896 0,-0.896l-0.003,-0.013Zm-2.219,12.159c-0.606,0 -1.103,-0.463 -1.103,-1.037c0,-0.567 0.491,-1.031 1.088,-1.031c0.606,0 1.11,0.464 1.11,1.031c-0.009,0.576 -0.506,1.035 -1.118,1.037l0.023,0Zm5.435,-4.701l-5.879,0c-0.576,0.005 -0.691,-0.384 -0.64,-0.768l0.608,-4.054c0.086,-0.491 0.263,-0.811 0.956,-0.818l10.072,0c0.704,0.005 0.875,0.327 0.961,0.816l0.618,4.054c0.056,0.384 -0.064,0.768 -0.631,0.768l-6.05,0l-0.015,0.002Zm5.587,4.701c-0.598,0 -1.11,-0.463 -1.11,-1.037c0,-0.567 0.512,-1.031 1.11,-1.031c0.619,0 1.109,0.464 1.131,1.031c0,0.576 -0.495,1.035 -1.11,1.037l-0.021,0Z" style="fill:#fff;fill-rule:nonzero;"/></g></g><circle cx="47" cy="51" r="17" style="fill:#fff;"/><clipPath id="_clip3"><circle cx="47" cy="51" r="17"/></clipPath><g clip-path="url(#_clip3)"><circle cx="47" cy="51" r="15" style="fill:#f01b48;"/><clipPath id="_clip4"><circle cx="47" cy="51" r="15"/></clipPath><g clip-path="url(#_clip4)"><path d="M54.228,44.558c-0.218,-1.009 -0.91,-1.412 -1.951,-1.814c-1.016,-0.405 -3.461,-0.874 -5.275,-0.889c-1.814,0.012 -4.261,0.486 -5.286,0.885c-1.032,0.401 -1.728,0.805 -1.937,1.814l-0.779,5.584l0,7.7l1.344,0l0,1.203c-0.006,1.472 2.301,1.472 2.305,0l0,-1.203l8.706,0l0,1.203c-0.004,1.472 2.305,1.472 2.305,0l0,-1.203l1.34,0l0,-7.7l-0.777,-5.58l0.005,0Zm-10.521,-0.503l6.59,0c0.644,0 0.644,0.907 0,0.909l-6.587,0c-0.651,0 -0.651,-0.896 0,-0.896l-0.003,-0.013Zm-2.219,11.371c-0.606,0 -1.103,-0.463 -1.103,-1.037c0,-0.567 0.491,-1.031 1.088,-1.031c0.606,0 1.11,0.464 1.11,1.031c-0.009,0.576 -0.506,1.035 -1.118,1.037l0.023,0Zm5.435,-4.089l-5.458,0c-0.576,0.004 -0.692,-0.384 -0.641,-0.768l0.609,-4.055c0.085,-0.49 0.262,-0.81 0.956,-0.817l9.195,0c0.704,0.004 0.875,0.327 0.96,0.815l0.619,4.055c0.055,0.384 -0.064,0.768 -0.632,0.768l-5.593,0l-0.015,0.002Zm5.587,4.089c-0.598,0 -1.11,-0.463 -1.11,-1.037c0,-0.567 0.512,-1.031 1.11,-1.031c0.619,0 1.109,0.464 1.131,1.031c0,0.576 -0.495,1.035 -1.11,1.037l-0.021,0Z" style="fill:#fff;fill-rule:nonzero;"/></g></g><circle cx="98" cy="17" r="17" style="fill:#fff;"/><clipPath id="_clip5"><circle cx="98" cy="17" r="17"/></clipPath><g clip-path="url(#_clip5)"><circle cx="98" cy="17" r="15" style="fill:#f01b48;"/></g><circle cx="132" cy="17" r="17" style="fill:#fff;"/><clipPath id="_clip6"><circle cx="132" cy="17" r="17"/></clipPath><g clip-path="url(#_clip6)"><circle cx="132" cy="17" r="13" style="fill:#f01b48;"/></g><g id="Start-marker" serif:id="Start marker"><path d="M166,42.466l-13.199,-14.752l26.398,0l-13.199,14.752Z" style="fill:#fff;"/><circle id="Start-marker1" serif:id="Start marker" cx="166" cy="17" r="17" style="fill:#fff;"/><g><circle cx="166" cy="17" r="13" style="fill:#f01b48;"/><path d="M166,37.376l-9.963,-12.034l19.926,0l-9.963,12.034Z" style="fill:#f01b48;"/></g><circle cx="166" cy="17" r="9" style="fill:#fff;"/></g><g id="Start-marker2" serif:id="Start marker"><path d="M200,42.466l-13.199,-14.752l26.398,0l-13.199,14.752Z" style="fill:#fff;"/><circle id="Start-marker3" serif:id="Start marker" cx="200" cy="17" r="17" style="fill:#fff;"/><g><circle cx="200" cy="17" r="13" style="fill:#f01b48;"/><path d="M200,37.376l-9.963,-12.034l19.926,0l-9.963,12.034Z" style="fill:#f01b48;"/></g><circle cx="200" cy="17" r="9" style="fill:#fff;"/><circle cx="200" cy="17" r="5" style="fill:#f01b48;"/></g><g id="Start-marker4" serif:id="Start marker"><path d="M234,42.466l-13.199,-14.752l26.398,0l-13.199,14.752Z" style="fill:#fff;"/><circle id="Start-marker5" serif:id="Start marker" cx="234" cy="17" r="17" style="fill:#fff;"/><g><circle cx="234" cy="17" r="13" style="fill:#f01b48;"/><path d="M234,37.376l-9.963,-12.034l19.926,0l-9.963,12.034Z" style="fill:#f01b48;"/></g><circle cx="234" cy="17" r="5" style="fill:#f01b48;"/><path d="M240.324,11.363c-0.19,-0.883 -0.795,-1.236 -1.707,-1.587c-0.888,-0.354 -3.028,-0.765 -4.615,-0.778c-1.587,0.011 -3.729,0.426 -4.625,0.775c-0.904,0.351 -1.513,0.704 -1.695,1.587l-0.682,4.886l0,6.737l1.176,0l0,1.053c-0.005,1.288 2.013,1.288 2.017,0l0,-1.053l7.618,0l0,1.053c-0.004,1.288 2.016,1.288 2.016,0l0,-1.053l1.173,0l0,-6.737l-0.68,-4.883l0.004,0Zm-9.205,-0.44l5.766,0c0.564,0 0.564,0.794 0,0.796l-5.764,0c-0.57,0 -0.57,-0.784 0,-0.784l-0.002,-0.012Zm-1.942,9.95c-0.53,0 -0.965,-0.405 -0.965,-0.907c0,-0.497 0.429,-0.902 0.952,-0.902c0.53,0 0.971,0.405 0.971,0.902c-0.007,0.504 -0.443,0.905 -0.978,0.907l0.02,0Zm4.756,-3.578l-4.776,0c-0.505,0.004 -0.605,-0.336 -0.561,-0.672l0.533,-3.548c0.074,-0.429 0.229,-0.709 0.836,-0.715l8.046,0c0.616,0.004 0.765,0.286 0.84,0.713l0.541,3.548c0.049,0.336 -0.056,0.672 -0.552,0.672l-4.894,0l-0.013,0.002Zm4.888,3.578c-0.523,0 -0.971,-0.405 -0.971,-0.907c0,-0.497 0.448,-0.902 0.971,-0.902c0.541,0 0.971,0.405 0.99,0.902c0,0.504 -0.434,0.905 -0.971,0.907l-0.019,0Z" style="fill:#fff;fill-rule:nonzero;"/></g><circle cx="72.5" cy="8.5" r="8.5" style="fill:#fff;"/><clipPath id="_clip7"><circle cx="72.5" cy="8.5" r="8.5"/></clipPath><g clip-path="url(#_clip7)"><circle cx="72.5" cy="8.5" r="6.5" style="fill:#f01b48;"/></g><path d="M30,6c0,-3.311 -2.689,-6 -6,-6l-18,0c-3.311,0 -6,2.689 -6,6l0,18c0,3.311 2.689,6 6,6l18,0c3.311,0 6,-2.689 6,-6l0,-18Z" style="fill:#f01b48;"/><clipPath id="_clip8"><path d="M30,6c0,-3.311 -2.689,-6 -6,-6l-18,0c-3.311,0 -6,2.689 -6,6l0,18c0,3.311 2.689,6 6,6l18,0c3.311,0 6,-2.689 6,-6l0,-18Z"/></clipPath><g clip-path="url(#_clip8)"><path d="M24.484,6.548c-0.286,-1.325 -1.193,-1.854 -2.56,-2.38c-1.332,-0.532 -4.541,-1.148 -6.921,-1.168c-2.38,0.017 -5.592,0.638 -6.936,1.162c-1.355,0.526 -2.268,1.056 -2.542,2.38l-1.022,7.328l0,10.102l1.764,0l0,1.579c-0.009,1.932 3.018,1.932 3.024,0l0,-1.579l11.424,0l0,1.579c-0.006,1.932 3.024,1.932 3.024,0l0,-1.579l1.758,0l0,-10.102l-1.019,-7.322l0.006,0Zm-13.804,-1.694l8.646,0c0.846,0 0.846,1.19 0,1.192l-8.644,0c-0.854,0 -0.854,-1.176 0,-1.176l-0.002,-0.016Zm-2.912,15.954c-0.796,0 -1.448,-0.608 -1.448,-1.361c0,-0.745 0.644,-1.352 1.428,-1.352c0.795,0 1.456,0.607 1.456,1.352c-0.011,0.756 -0.664,1.358 -1.467,1.361l0.031,0Zm7.131,-6.168l-7.714,0c-0.756,0.005 -0.907,-0.504 -0.84,-1.008l0.798,-5.32c0.112,-0.644 0.345,-1.064 1.255,-1.073l13.216,0c0.924,0.006 1.148,0.429 1.26,1.07l0.812,5.32c0.072,0.504 -0.084,1.008 -0.829,1.008l-7.938,0l-0.02,0.003Zm7.331,6.168c-0.784,0 -1.456,-0.608 -1.456,-1.361c0,-0.745 0.672,-1.352 1.456,-1.352c0.812,0 1.456,0.607 1.484,1.352c0,0.756 -0.65,1.358 -1.456,1.361l-0.028,0Z" style="fill:#fff;fill-rule:nonzero;"/></g><path d="M288,11.5c0,-0.276 -0.224,-0.5 -0.5,-0.5l-15,0c-0.276,0 -0.5,0.224 -0.5,0.5l0,5c0,0.276 0.224,0.5 0.5,0.5l15,0c0.276,0 0.5,-0.224 0.5,-0.5l0,-5Z" style="fill:#6a6a6a;"/><path d="M287,12.299c0,-0.165 -0.134,-0.299 -0.299,-0.299l-13.402,0c-0.165,0 -0.299,0.134 -0.299,0.299l0,1.402c0,0.165 0.134,0.299 0.299,0.299l13.402,0c0.165,0 0.299,-0.134 0.299,-0.299l0,-1.402Z" style="fill:#fff;"/><rect x="275" y="11" width="1" height="4" style="fill:#6a6a6a;"/><rect x="278" y="11" width="1" height="4" style="fill:#6a6a6a;"/><rect x="281" y="11" width="1" height="4" style="fill:#6a6a6a;"/><rect x="284" y="11" width="1" height="4" style="fill:#6a6a6a;"/><circle cx="274" cy="17" r="1" style="fill:#4a4a4a;"/><circle cx="284" cy="17" r="1" style="fill:#4a4a4a;"/><path d="M293,19.5c0,-0.276 -0.224,-0.5 -0.5,-0.5l-20,0c-0.276,0 -0.5,0.224 -0.5,0.5l0,5c0,0.276 0.224,0.5 0.5,0.5l20,0c0.276,0 0.5,-0.224 0.5,-0.5l0,-5Z" style="fill:#6a6a6a;"/><path d="M292,20.299c0,-0.165 -0.134,-0.299 -0.299,-0.299l-18.402,0c-0.165,0 -0.299,0.134 -0.299,0.299l0,1.402c0,0.165 0.134,0.299 0.299,0.299l18.402,0c0.165,0 0.299,-0.134 0.299,-0.299l0,-1.402Z" style="fill:#fff;"/><rect x="275" y="19" width="1" height="4" style="fill:#6a6a6a;"/><rect x="278" y="19" width="1" height="4" style="fill:#6a6a6a;"/><rect x="289" y="19" width="1" height="4" style="fill:#6a6a6a;"/><rect x="281" y="19" width="1" height="4" style="fill:#6a6a6a;"/><rect x="284" y="19" width="3" height="6" style="fill:#6a6a6a;"/><g><rect x="284.25" y="19" width="0.25" height="6" style="fill:#fff;fill-opacity:0.501961;"/><rect x="284.75" y="19" width="0.25" height="6" style="fill:#fff;fill-opacity:0.501961;"/><rect x="285.25" y="19" width="0.25" height="6" style="fill:#fff;fill-opacity:0.501961;"/><rect x="285.75" y="19" width="0.25" height="6" style="fill:#fff;fill-opacity:0.501961;"/><rect x="286.25" y="19" width="0.25" height="6" style="fill:#fff;fill-opacity:0.501961;"/><rect x="286.75" y="19" width="0.25" height="6" style="fill:#fff;fill-opacity:0.501961;"/></g><circle cx="274" cy="25" r="1" style="fill:#4a4a4a;"/><circle cx="282" cy="25" r="1" style="fill:#4a4a4a;"/><circle cx="289" cy="25" r="1" style="fill:#4a4a4a;"/><path d="M305,8.5c0,-0.276 -0.224,-0.5 -0.5,-0.5l-15,0c-0.276,0 -0.5,0.224 -0.5,0.5l0,8c0,0.276 0.224,0.5 0.5,0.5l15,0c0.276,0 0.5,-0.224 0.5,-0.5l0,-8Z" style="fill:#6a6a6a;"/><path d="M304,9.269c0,-0.148 -0.121,-0.269 -0.269,-0.269l-13.462,0c-0.148,0 -0.269,0.121 -0.269,0.269l0,4.462c0,0.148 0.121,0.269 0.269,0.269l13.462,0c0.148,0 0.269,-0.121 0.269,-0.269l0,-4.462Z" style="fill:#fff;"/><rect x="292" y="8" width="1" height="7" style="fill:#6a6a6a;"/><path d="M289.5,11l0,1l15.5,0l0,-1l-15.5,0Z" style="fill:#6a6a6a;"/><rect x="295" y="8" width="1" height="7" style="fill:#6a6a6a;"/><rect x="298" y="8" width="1" height="7" style="fill:#6a6a6a;"/><rect x="301" y="8" width="1" height="7" style="fill:#6a6a6a;"/><circle cx="291" cy="17" r="1" style="fill:#4a4a4a;"/><circle cx="301" cy="17" r="1" style="fill:#4a4a4a;"/><circle cx="298" cy="17" r="1" style="fill:#4a4a4a;"/><path d="M287.5,37l-15,0c-0.276,0 -0.5,-0.224 -0.5,-0.5l0,-5c0,-0.276 0.224,-0.5 0.5,-0.5l15,0c0.276,0 0.5,0.224 0.5,0.5l0,5c0,0.276 -0.224,0.5 -0.5,0.5Zm-12.5,-3l0,-2l-1.701,0c-0.165,0 -0.299,0.134 -0.299,0.299l0,1.402c0,0.165 0.134,0.299 0.299,0.299l1.701,0Zm1,-2l0,2l2,0l0,-2l-2,0Zm3,0l0,2l2,0l0,-2l-2,0Zm3,0l0,2l2,0l0,-2l-2,0Zm4.701,0l-1.701,0l0,2l1.701,0c0.165,0 0.299,-0.134 0.299,-0.299l0,-1.402c0,-0.165 -0.134,-0.299 -0.299,-0.299Z" style="fill:#6a6a6a;"/><circle cx="274" cy="37" r="1" style="fill:#4a4a4a;"/><circle cx="284" cy="37" r="1" style="fill:#4a4a4a;"/><path d="M292.5,45l-20,0c-0.276,0 -0.5,-0.224 -0.5,-0.5l0,-5c0,-0.276 0.224,-0.5 0.5,-0.5l20,0c0.276,0 0.5,0.224 0.5,0.5l0,5c0,0.276 -0.224,0.5 -0.5,0.5Zm-17.5,-3l0,-2l-1.701,0c-0.165,0 -0.299,0.134 -0.299,0.299l0,1.402c0,0.165 0.134,0.299 0.299,0.299l1.701,0Zm1,-2l0,2l2,0l0,-2l-2,0Zm3,0l0,2l2,0l0,-2l-2,0Zm3,0l0,2l2,0l0,-2l-2,0Zm5,0l0,2l2,0l0,-2l-2,0Zm4.701,0l-1.701,0l0,2l1.701,0c0.165,0 0.299,-0.134 0.299,-0.299l0,-1.402c0,-0.165 -0.134,-0.299 -0.299,-0.299Z" style="fill:#6a6a6a;"/><path d="M284.5,39l0,6l-0.25,0l0,-6l0.25,0Zm0.5,0l0,6l-0.25,0l0,-6l0.25,0Zm0.5,0l0,6l-0.25,0l0,-6l0.25,0Zm0.5,0l0,6l-0.25,0l0,-6l0.25,0Zm0.5,0l0,6l-0.25,0l0,-6l0.25,0Zm0.5,0l0,6l-0.25,0l0,-6l0.25,0Z" style="fill:#fff;fill-opacity:0.501961;"/><circle cx="274" cy="45" r="1" style="fill:#4a4a4a;"/><circle cx="282" cy="45" r="1" style="fill:#4a4a4a;"/><circle cx="289" cy="45" r="1" style="fill:#4a4a4a;"/><path d="M304.5,37l-15,0c-0.276,0 -0.5,-0.224 -0.5,-0.5l0,-8c0,-0.276 0.224,-0.5 0.5,-0.5l15,0c0.276,0 0.5,0.224 0.5,0.5l0,8c0,0.276 -0.224,0.5 -0.5,0.5Zm-12.5,-3l0,-2l-2,0l0,1.731c0,0.148 0.121,0.269 0.269,0.269l1.731,0Zm1,-2l0,2l2,0l0,-2l-2,0Zm3,0l0,2l2,0l0,-2l-2,0Zm3,0l0,2l2,0l0,-2l-2,0Zm5,0l-2,0l0,2l1.731,0c0.148,0 0.269,-0.121 0.269,-0.269l0,-1.731Zm-0.269,-3l-1.731,0l0,2l2,0l0,-1.731c0,-0.148 -0.121,-0.269 -0.269,-0.269Zm-4.731,0l0,2l2,0l0,-2l-2,0Zm-3,0l0,2l2,0l0,-2l-2,0Zm-3,0l0,2l2,0l0,-2l-2,0Zm-3,2l2,0l0,-2l-1.731,0c-0.148,0 -0.269,0.121 -0.269,0.269l0,1.731Z" style="fill:#6a6a6a;"/><circle cx="291" cy="37" r="1" style="fill:#4a4a4a;"/><circle cx="301" cy="37" r="1" style="fill:#4a4a4a;"/><circle cx="298" cy="37" r="1" style="fill:#4a4a4a;"/></svg>