<svg xmlns="http://www.w3.org/2000/svg" viewBox="0 0 26 32">
  <path fill="#fff" d="M2.85 20.79a12.76 12.76 0 1 1 19.8 0l-.03.03c-.24.29-.49.57-.75.84l-9.12 10.19-9.12-10.2c-.26-.26-.51-.54-.75-.83l-.03-.03z"/>
  <path fill="#f01b48" d="M5.39 19.14a9.75 9.75 0 1 1 14.72 0l-7.36 8.9-7.36-8.9z"/>
  <path fill="#fff" d="M17.5 8.52c-.15-.66-.6-.92-1.29-1.19-.66-.26-2.27-.57-3.46-.58-1.19 0-2.8.32-3.47.58-.68.26-1.13.53-1.27 1.19l-.51 3.67v5.05h.88v.79c0 .96 1.51.96 1.51 0v-.8h5.72v.8c0 .96 1.51.96 1.51 0v-.8H18v-5.05l-.51-3.66zm-6.91-.33h4.32c.43 0 .43.6 0 .6H10.6a.3.3 0 0 1 0-.59zm-1.46 7.47c-.4 0-.72-.3-.72-.69 0-.37.32-.67.71-.67.4 0 .73.3.73.67 0 .38-.33.68-.73.68h.01zm3.57-2.69H9.12c-.38 0-.46-.25-.42-.5l.4-2.66c.05-.33.17-.54.62-.54h6.04c.46 0 .57.21.63.54l.4 2.66c.04.25-.04.5-.41.5H12.7zm3.67 2.68c-.4 0-.73-.3-.73-.68 0-.37.33-.67.73-.67.4 0 .72.3.74.67 0 .38-.33.68-.73.68h-.01z"/>
</svg>