<svg width="0" height="0" style="position:absolute"><symbol viewBox="0 0 1792 1792" id="angle-left"><path d="M1203 544q0 13-10 23L800 960l393 393q10 10 10 23t-10 23l-50 50q-10 10-23 10t-23-10L631 983q-10-10-10-23t10-23l466-466q10-10 23-10t23 10l50 50q10 10 10 23z"/></symbol><symbol viewBox="0 0 1792 1792" id="arrow-circle-o-right"><path d="M1280 896q0 14-9 23l-320 320q-9 9-23 9-13 0-22.5-9.5T896 1216v-192H544q-13 0-22.5-9.5T512 992V800q0-13 9.5-22.5T544 768h352V576q0-14 9-23t23-9q12 0 24 10l319 319q9 9 9 23zm160 0q0-148-73-273t-198-198-273-73-273 73-198 198-73 273 73 273 198 198 273 73 273-73 198-198 73-273zm224 0q0 209-103 385.5T1281.5 1561 896 1664t-385.5-103T231 1281.5 128 896t103-385.5T510.5 231 896 128t385.5 103T1561 510.5 1664 896z"/></symbol><symbol viewBox="0 0 1792 1792" id="bus"><path d="M512 1216q0-53-37.5-90.5T384 1088t-90.5 37.5T256 1216t37.5 90.5T384 1344t90.5-37.5T512 1216zm1024 0q0-53-37.5-90.5T1408 1088t-90.5 37.5-37.5 90.5 37.5 90.5 90.5 37.5 90.5-37.5 37.5-90.5zm-46-396l-72-384q-5-23-22.5-37.5T1355 384H437q-23 0-40.5 14.5T374 436l-72 384q-5 30 14 53t49 23h1062q30 0 49-23t14-53zm-226-612q0-20-14-34t-34-14H576q-20 0-34 14t-14 34 14 34 34 14h640q20 0 34-14t14-34zm400 725v603h-128v128q0 53-37.5 90.5T1408 1792t-90.5-37.5-37.5-90.5v-128H512v128q0 53-37.5 90.5T384 1792t-90.5-37.5T256 1664v-128H128V933q0-112 25-223l103-454q9-78 97.5-137t230-89T896 0t312.5 30 230 89 97.5 137l105 454q23 102 23 223z"/></symbol><symbol viewBox="0 0 1792 1792" id="clock-o"><path d="M1024 544v448q0 14-9 23t-23 9H672q-14 0-23-9t-9-23v-64q0-14 9-23t23-9h224V544q0-14 9-23t23-9h64q14 0 23 9t9 23zm416 352q0-148-73-273t-198-198-273-73-273 73-198 198-73 273 73 273 198 198 273 73 273-73 198-198 73-273zm224 0q0 209-103 385.5T1281.5 1561 896 1664t-385.5-103T231 1281.5 128 896t103-385.5T510.5 231 896 128t385.5 103T1561 510.5 1664 896z"/></symbol><symbol viewBox="0 0 1792 1792" id="code-fork"><path d="M672 1472q0-40-28-68t-68-28-68 28-28 68 28 68 68 28 68-28 28-68zm0-1152q0-40-28-68t-68-28-68 28-28 68 28 68 68 28 68-28 28-68zm640 128q0-40-28-68t-68-28-68 28-28 68 28 68 68 28 68-28 28-68zm96 0q0 52-26 96.5t-70 69.5q-2 287-226 414-68 38-203 81-128 40-169.5 71T672 1280v26q44 25 70 69.5t26 96.5q0 80-56 136t-136 56-136-56-56-136q0-52 26-96.5t70-69.5V486q-44-25-70-69.5T384 320q0-80 56-136t136-56 136 56 56 136q0 52-26 96.5T672 486v497q54-26 154-57 55-17 87.5-29.5t70.5-31 59-39.5 40.5-51 28-69.5 8.5-91.5q-44-25-70-69.5t-26-96.5q0-80 56-136t136-56 136 56 56 136z"/></symbol><symbol viewBox="0 0 1792 1792" id="facebook-square"><path d="M1376 128q119 0 203.5 84.5T1664 416v960q0 119-84.5 203.5T1376 1664h-188v-595h199l30-232h-229V689q0-56 23.5-84t91.5-28l122-1V369q-63-9-178-9-136 0-217.5 80T948 666v171H748v232h200v595H416q-119 0-203.5-84.5T128 1376V416q0-119 84.5-203.5T416 128h960z"/></symbol><symbol viewBox="0 0 1792 1792" id="google-plus-square"><path d="M957 1218q0 76-58.5 112.5T759 1367q-41 0-80.5-9.5T603 1329t-58-53-22-78q0-46 25-80t65.5-51.5 82-25 84.5-7.5q20 0 31 2 2 1 23 16.5t26 19 23 18 24.5 22 19 22.5 17 26 9 26.5 4.5 31.5zm-74-545q0 60-33 99.5T758 812q-53 0-93-42.5T607.5 673 590 567q0-61 32-104t92-43q53 0 93.5 45t58 101T883 673zm106-257l88-64H812q-85 0-161 32t-127.5 98T472 635q0 93 64.5 154.5T695 851q22 0 43-3-13 29-13 54 0 44 40 94-175 12-257 63-47 29-75.5 73t-28.5 95q0 43 18.5 77.5T471 1361t69 37 77.5 21 76.5 6q60 0 120.5-15.5t113.5-46 86-82.5 33-117q0-49-20-89.5t-49-66.5-58-47.5-49-44-20-44.5 15.5-42.5T904 790t44-42 37.5-59.5T1001 606q0-60-22.5-99.5T906 416h83zm291 448h128v-64h-128V672h-64v128h-128v64h128v160h64V864zm384-448v960q0 119-84.5 203.5T1376 1664H416q-119 0-203.5-84.5T128 1376V416q0-119 84.5-203.5T416 128h960q119 0 203.5 84.5T1664 416z"/></symbol><symbol viewBox="0 0 1792 1792" id="info"><path d="M1216 1344v128q0 26-19 45t-45 19H640q-26 0-45-19t-19-45v-128q0-26 19-45t45-19h64V896h-64q-26 0-45-19t-19-45V704q0-26 19-45t45-19h384q26 0 45 19t19 45v576h64q26 0 45 19t19 45zM1088 192v192q0 26-19 45t-45 19H768q-26 0-45-19t-19-45V192q0-26 19-45t45-19h256q26 0 45 19t19 45z"/></symbol><symbol viewBox="0 0 1792 1792" id="list-alt"><path d="M384 1184v64q0 13-9.5 22.5T352 1280h-64q-13 0-22.5-9.5T256 1248v-64q0-13 9.5-22.5t22.5-9.5h64q13 0 22.5 9.5t9.5 22.5zm0-256v64q0 13-9.5 22.5T352 1024h-64q-13 0-22.5-9.5T256 992v-64q0-13 9.5-22.5T288 896h64q13 0 22.5 9.5T384 928zm0-256v64q0 13-9.5 22.5T352 768h-64q-13 0-22.5-9.5T256 736v-64q0-13 9.5-22.5T288 640h64q13 0 22.5 9.5T384 672zm1152 512v64q0 13-9.5 22.5t-22.5 9.5H544q-13 0-22.5-9.5T512 1248v-64q0-13 9.5-22.5t22.5-9.5h960q13 0 22.5 9.5t9.5 22.5zm0-256v64q0 13-9.5 22.5t-22.5 9.5H544q-13 0-22.5-9.5T512 992v-64q0-13 9.5-22.5T544 896h960q13 0 22.5 9.5t9.5 22.5zm0-256v64q0 13-9.5 22.5T1504 768H544q-13 0-22.5-9.5T512 736v-64q0-13 9.5-22.5T544 640h960q13 0 22.5 9.5t9.5 22.5zm128 704V544q0-13-9.5-22.5T1632 512H160q-13 0-22.5 9.5T128 544v832q0 13 9.5 22.5t22.5 9.5h1472q13 0 22.5-9.5t9.5-22.5zm128-1088v1088q0 66-47 113t-113 47H160q-66 0-113-47T0 1376V288q0-66 47-113t113-47h1472q66 0 113 47t47 113z"/></symbol><symbol viewBox="0 0 1792 1792" id="location-arrow"><path d="M1593 349L953 1629q-17 35-57 35-5 0-15-2-22-5-35.5-22.5T832 1600v-576H256q-22 0-39.5-13.5T194 975t4-42 29-30l1280-640q13-7 29-7 27 0 45 19 15 14 18.5 34.5T1593 349z"/></symbol><symbol viewBox="0 0 1792 1792" id="search-icon"><path d="M1216 832q0-185-131.5-316.5T768 384 451.5 515.5 320 832t131.5 316.5T768 1280t316.5-131.5T1216 832zm512 832q0 52-38 90t-90 38q-54 0-90-38l-343-342q-179 124-399 124-143 0-273.5-55.5t-225-150-150-225T64 832t55.5-273.5 150-225 225-150T768 128t273.5 55.5 225 150 150 225T1472 832q0 220-124 399l343 343q37 37 37 90z"/></symbol><symbol viewBox="0 0 1792 1792" id="times"><path d="M1490 1322q0 40-28 68l-136 136q-28 28-68 28t-68-28l-294-294-294 294q-28 28-68 28t-68-28l-136-136q-28-28-28-68t28-68l294-294-294-294q-28-28-28-68t28-68l136-136q28-28 68-28t68 28l294 294 294-294q28-28 68-28t68 28l136 136q28 28 28 68t-28 68l-294 294 294 294q28 28 28 68z"/></symbol><symbol viewBox="0 0 1792 1792" id="twitter-square"><path d="M1408 610q-56 25-121 34 68-40 93-117-65 38-134 51-61-66-153-66-87 0-148.5 61.5T883 722q0 29 5 48-129-7-242-65T454 550q-29 50-29 106 0 114 91 175-47-1-100-26v2q0 75 50 133.5t123 72.5q-29 8-51 8-13 0-39-4 21 63 74.5 104t121.5 42q-116 90-261 90-26 0-50-3 148 94 322 94 112 0 210-35.5t168-95 120.5-137 75-162T1304 746q0-18-1-27 63-45 105-109zm256-194v960q0 119-84.5 203.5T1376 1664H416q-119 0-203.5-84.5T128 1376V416q0-119 84.5-203.5T416 128h960q119 0 203.5 84.5T1664 416z"/></symbol></svg>