<svg width="0" height="0" style="position:absolute"><symbol viewBox="0 0 1792 1792" id="angle-left"><path d="M1203 544q0 13-10 23L800 960l393 393q10 10 10 23t-10 23l-50 50q-10 10-23 10t-23-10L631 983q-10-10-10-23t10-23l466-466q10-10 23-10t23 10l50 50q10 10 10 23z"/></symbol><symbol viewBox="0 0 1792 1792" id="clock-o"><path d="M1024 544v448q0 14-9 23t-23 9H672q-14 0-23-9t-9-23v-64q0-14 9-23t23-9h224V544q0-14 9-23t23-9h64q14 0 23 9t9 23zm416 352q0-148-73-273t-198-198-273-73-273 73-198 198-73 273 73 273 198 198 273 73 273-73 198-198 73-273zm224 0q0 209-103 385.5T1281.5 1561 896 1664t-385.5-103T231 1281.5 128 896t103-385.5T510.5 231 896 128t385.5 103T1561 510.5 1664 896z"/></symbol><symbol viewBox="0 0 1792 1792" id="code-fork"><path d="M672 1472q0-40-28-68t-68-28-68 28-28 68 28 68 68 28 68-28 28-68zm0-1152q0-40-28-68t-68-28-68 28-28 68 28 68 68 28 68-28 28-68zm640 128q0-40-28-68t-68-28-68 28-28 68 28 68 68 28 68-28 28-68zm96 0q0 52-26 96.5t-70 69.5q-2 287-226 414-68 38-203 81-128 40-169.5 71T672 1280v26q44 25 70 69.5t26 96.5q0 80-56 136t-136 56-136-56-56-136q0-52 26-96.5t70-69.5V486q-44-25-70-69.5T384 320q0-80 56-136t136-56 136 56 56 136q0 52-26 96.5T672 486v497q54-26 154-57 55-17 87.5-29.5t70.5-31 59-39.5 40.5-51 28-69.5 8.5-91.5q-44-25-70-69.5t-26-96.5q0-80 56-136t136-56 136 56 56 136z"/></symbol><symbol viewBox="0 0 1792 1792" id="list-alt"><path d="M384 1184v64q0 13-9.5 22.5T352 1280h-64q-13 0-22.5-9.5T256 1248v-64q0-13 9.5-22.5t22.5-9.5h64q13 0 22.5 9.5t9.5 22.5zm0-256v64q0 13-9.5 22.5T352 1024h-64q-13 0-22.5-9.5T256 992v-64q0-13 9.5-22.5T288 896h64q13 0 22.5 9.5T384 928zm0-256v64q0 13-9.5 22.5T352 768h-64q-13 0-22.5-9.5T256 736v-64q0-13 9.5-22.5T288 640h64q13 0 22.5 9.5T384 672zm1152 512v64q0 13-9.5 22.5t-22.5 9.5H544q-13 0-22.5-9.5T512 1248v-64q0-13 9.5-22.5t22.5-9.5h960q13 0 22.5 9.5t9.5 22.5zm0-256v64q0 13-9.5 22.5t-22.5 9.5H544q-13 0-22.5-9.5T512 992v-64q0-13 9.5-22.5T544 896h960q13 0 22.5 9.5t9.5 22.5zm0-256v64q0 13-9.5 22.5T1504 768H544q-13 0-22.5-9.5T512 736v-64q0-13 9.5-22.5T544 640h960q13 0 22.5 9.5t9.5 22.5zm128 704V544q0-13-9.5-22.5T1632 512H160q-13 0-22.5 9.5T128 544v832q0 13 9.5 22.5t22.5 9.5h1472q13 0 22.5-9.5t9.5-22.5zm128-1088v1088q0 66-47 113t-113 47H160q-66 0-113-47T0 1376V288q0-66 47-113t113-47h1472q66 0 113 47t47 113z"/></symbol><symbol viewBox="0 0 1792 1792" id="search-icon"><path d="M1216 832q0-185-131.5-316.5T768 384 451.5 515.5 320 832t131.5 316.5T768 1280t316.5-131.5T1216 832zm512 832q0 52-38 90t-90 38q-54 0-90-38l-343-342q-179 124-399 124-143 0-273.5-55.5t-225-150-150-225T64 832t55.5-273.5 150-225 225-150T768 128t273.5 55.5 225 150 150 225T1472 832q0 220-124 399l343 343q37 37 37 90z"/></symbol><symbol viewBox="0 0 1792 1792" id="times"><path d="M1490 1322q0 40-28 68l-136 136q-28 28-68 28t-68-28l-294-294-294 294q-28 28-68 28t-68-28l-136-136q-28-28-28-68t28-68l294-294-294-294q-28-28-28-68t28-68l136-136q28-28 68-28t68 28l294 294 294-294q28-28 68-28t68 28l136 136q28 28 28 68t-28 68l-294 294 294 294q28 28 28 68z"/></symbol></svg>