<svg xmlns="http://www.w3.org/2000/svg" viewBox="0 0 120 120">
  <circle cx="60" cy="60" r="60" fill="#fff"/>
  <path fill="#00454d" d="M60.4 0h.77l.38.02h.38l.4.02.37.02.4.02.37.02.38.02.38.03.38.02.4.03.37.04.38.03.38.04.38.05.4.04.36.04.38.04.37.05.4.05.36.06.37.05.37.05.37.06.38.07.36.07L71 1l.37.07.37.08.37.07.35.08.37.07.36.1.36.07.37.08.37.1.36.08.36.1.35.08.35.1.36.1.36.1.35.1.36.1.35.1.35.12.36.1.34.12.35.12.33.12.35.1.35.14.35.12.34.12.34.13.35.13.35.13.34.14.33.13.34.14.34.14.34.14.34.14.34.15.33.15.33.15.33.16.34.15.33.16.33.16.33.16.33.16.32.16.32.17.33.17.32.16.32.17.32.18.3.17.32.18.32.17.32.18.3.2.32.17.3.18.32.2.3.18.32.2.3.18.3.2.3.2.32.2.3.2.3.2.3.2.3.2.3.2.28.22.3.2.3.22.28.2.3.23.28.2.28.23.3.22.27.22.3.23.27.22.28.23.28.23.27.24.28.23.28.23.28.24.27.24.27.23.27.25.26.25.27.24.26.24.27.25.26.25.25.25.26.25.26.25.26.25.25.26.25.25.25.25.25.26.25.27.25.27.24.26.24.27.25.26.24.27.22.27.24.27.24.28.23.27.23.27.23.27.22.28.23.28.22.28.23.3.22.27.22.3.22.27.2.3.23.28.2.3.2.28.22.3.2.3.22.3.2.3.2.28.2.3.2.3.2.3.2.3.2.32.2.3.18.3.2.32.18.3.18.32.18.3.2.32.17.32.17.3.18.33.17.3.18.33.17.32.16.32.17.33.17.32.16.32.16.33.16.33.16.33.15.33.14.33.16.32.15.33.14.33.14.34.14.34.14.33.14.33.14.34.14.34.13.35.13.34.13.34.13.34.12.34.13.35.13.35.12.35.1.34.13.36.1.35.12.37.1.35.12.35.1.36.1.35.1.36.1.36.1.35.1.36.08.37.1.36.08.36.08.36.1.36.07.36.07.37.08.36.07.38.08.37.07.37.06.36.07.37.06.37.05.38.06.37.06.37.06.37.05.4.05.36.04.38.05.37.05.4.04.37.03.38.03.38.04.38.03.4.02.37.03.38.02.38.02.38.02.4.02.38v.4l.02.37v.4l.02.37V61.18l-.02.38v.38l-.02.4-.02.37-.02.4-.02.37-.02.38-.03.38-.02.38-.03.4-.04.37-.03.38-.04.38-.05.38-.04.4-.04.36-.04.38-.05.37-.05.4-.06.36-.05.37-.05.37-.06.37-.07.38-.07.36-.06.38-.07.37-.08.37-.07.37-.08.35-.07.37-.08.36-.1.36-.07.37-.1.37-.08.36-.1.36-.08.35-.1.35-.1.36-.1.36-.1.35-.1.36-.1.35-.12.35-.1.36-.12.34-.12.35-.1.33-.13.35-.12.35-.12.35-.12.34-.13.34-.13.35-.13.35-.13.34-.14.33-.14.34-.14.34-.14.34-.14.34-.15.34-.15.33-.15.33-.16.33-.15.34-.16.33-.16.33-.16.33-.16.33-.16.32-.17.32-.17.33-.16.32-.17.32-.18.32-.17.3-.18.32-.17.32-.18.32-.2.3-.17.32-.18.3-.2.32-.18.3-.2.32-.18.3-.2.3-.2.3-.2.32-.2.3-.2.3-.2.3-.2.3-.2.3-.22.28-.2.3-.22.3-.2.28-.23.3-.2.28-.23.28-.22.3-.22.27-.23.3-.22.27-.23.28-.23.28-.24.27-.23.28-.23.28-.24.28-.24.27-.23.27-.25.27-.25.26-.24.27-.24.26-.25.27-.25.26-.25.25-.25.26-.25.26-.25.26-.26.25-.25.25-.25.25-.26.25-.27.25-.27.25-.26.24-.27.24-.26.25-.27.24-.27.22-.27.24-.28.24-.27.23-.27.23-.27.23-.28.22-.28.23-.28.22-.3.23-.27.22-.3.22-.27.22-.3.2-.28.23-.3.2-.28.2-.3.22-.3.2-.3.22-.3.2-.28.2-.3.2-.3.2-.3.2-.3.2-.32.2-.3.2-.3.18-.32.2-.3.18-.32.18-.3.18-.32.2-.32.17-.32.17-.3.18-.33.17-.33.18-.32.17-.32.16-.33.17-.32.17-.32.16-.33.16-.33.16-.33.16-.33.15-.33.14-.32.16-.33.15-.33.14-.34.14-.34.14-.33.14-.33.14-.34.14-.34.14-.35.13-.34.13-.34.13-.34.13-.34.12-.35.13-.35.13-.35.12-.34.1-.36.13-.35.1-.37.12-.35.1-.35.12-.36.1-.35.1-.36.1-.36.1-.35.1-.36.1-.37.08-.36.1-.36.08-.36.08-.36.1-.36.07-.37.07-.36.08-.38.07-.37.08-.37.07-.37.06-.35.07-.38.06-.37.05-.37.06-.37.06-.37.06-.4.05-.36.05-.38.04-.37.05-.4.05-.37.04-.38.03-.38.03-.38.04-.4.03-.37.02-.38.03-.38.02-.38.02-.4.02-.38.02h-.4l-.37.02h-.4l-.37.02H58.83l-.38-.02h-.38l-.4-.02-.37-.02-.4-.02-.37-.02-.38-.02-.38-.03-.38-.02-.4-.03-.37-.04-.38-.03-.38-.04-.38-.05-.4-.04-.36-.04-.38-.04-.37-.05-.4-.05-.36-.06-.37-.05-.37-.05-.37-.06-.38-.07-.37-.07-.36-.06-.37-.07-.37-.08-.37-.07-.35-.08-.37-.07-.36-.08-.36-.1-.37-.07-.37-.1-.36-.08-.36-.1-.35-.08-.35-.1-.36-.1-.36-.1-.35-.1-.36-.1-.35-.1-.35-.12-.36-.1-.34-.12-.35-.12-.33-.1-.35-.13-.35-.12-.35-.12-.34-.12-.34-.13-.35-.13-.35-.13-.34-.13-.33-.14-.34-.14-.34-.14-.34-.14-.34-.14-.34-.15-.33-.15-.33-.15-.33-.16-.34-.15-.33-.16-.33-.16-.33-.16-.33-.16-.32-.16-.32-.17-.33-.17-.32-.16-.32-.17-.32-.18-.3-.17-.32-.18-.32-.17-.32-.18-.3-.2-.32-.17-.3-.18-.32-.2-.3-.18-.32-.2-.3-.18-.3-.2-.3-.2-.32-.2-.3-.2-.3-.2-.3-.2-.3-.2-.3-.2-.28-.22-.3-.2-.3-.22-.28-.2-.3-.23-.28-.2-.28-.23-.3-.22-.27-.22-.3-.23-.27-.22-.28-.23-.28-.23-.27-.24-.28-.23-.28-.23-.28-.24-.27-.24-.27-.23-.27-.25-.26-.25-.27-.24-.26-.24-.27-.25-.26-.25-.25-.25-.26-.25-.26-.25-.26-.25-.25-.26-.25-.25-.25-.25-.25-.26-.25-.27-.25-.27-.24-.26-.24-.27-.25-.26-.24-.27-.22-.27-.24-.27-.24-.28-.23-.27-.23-.27-.23-.27-.22-.28-.23-.28-.22-.28-.23-.3-.22-.27-.22-.3-.22-.27-.2-.3-.23-.28-.2-.3-.2-.28-.22-.3-.2-.3-.22-.3-.2-.3-.2-.28-.2-.3-.2-.3-.2-.3-.2-.3-.2-.32-.2-.3-.18-.3-.2-.32-.18-.3-.18-.32-.18-.3-.2-.32-.17-.32-.17-.32-.18-.3-.17-.33-.18-.33-.17-.32-.16-.32-.17-.33-.17-.32-.16-.32-.16-.33-.16-.33-.16-.33-.15-.33-.14-.33-.16-.32-.15-.33-.14-.33-.14-.34-.14-.34-.14-.33-.14-.33-.14-.34-.13-.34-.14-.35-.13-.34-.13-.34-.13-.34-.12-.34-.12-.35-.13-.35-.1-.35-.13-.34-.12-.36-.1-.35-.12-.37-.1-.35-.12-.35-.1-.36-.1-.35-.1-.36-.1-.36-.1-.35-.1-.36-.08-.37-.1-.36-.08-.36-.08-.36-.08-.36-.1-.36-.06-.37-.08-.36-.07-.38-.08-.37-.06-.37-.06-.37-.07-.35-.06-.38-.05-.37-.06-.37-.06-.37-.06-.37-.05-.4-.05-.36-.04-.38-.05-.37-.05-.4-.04-.37-.03-.38-.03-.38L.2 65l-.02-.4-.03-.37-.03-.38-.02-.38-.02-.38-.02-.4-.02-.38v-.4L0 61.56v-.77l-.02-.4V58.84l.02-.38v-.38l.02-.4.02-.37.02-.4.02-.37.02-.38.03-.38.03-.38.03-.4.04-.37.03-.38.04-.38.05-.38.04-.4.04-.36.04-.38.05-.37.05-.4.06-.36.05-.37.05-.37.06-.37.07-.38.07-.37.07-.36.07-.37.08-.37.07-.37.08-.35.07-.37.1-.36.07-.36.08-.37.1-.37.08-.36.1-.36.08-.35.1-.35.1-.36.1-.36.1-.35.1-.36.1-.35.12-.35.1-.36.12-.34.12-.35.12-.33.1-.35.14-.35.12-.35.12-.34.13-.34.13-.35.13-.35.14-.34.13-.33.14-.34.14-.34.14-.34.14-.34.15-.34.15-.33.15-.33.16-.33.15-.34.16-.33.16-.33.16-.33.16-.33.16-.32.17-.32.17-.33.16-.32.17-.32.18-.32.17-.3.18-.32.17-.32.18-.32.2-.3.17-.32.18-.3.2-.32.18-.3.2-.32.18-.3.2-.3.2-.3.2-.32.2-.3.2-.3.2-.3.2-.3.2-.3.22-.28.2-.3.22-.3.2-.28.23-.3.2-.28.23-.28.22-.3.22-.27.23-.3.22-.27.23-.28.23-.28.24-.27.23-.28.23-.28.24-.28.24-.27.23-.27.25-.27.25-.26.24-.27.24-.26.25-.27.25-.26.25-.25.25-.26.25-.26.25-.26.26-.25.25-.25.25-.25.26-.25.27-.25.27-.25.26-.24.27-.24.26-.25.27-.24.27-.22.27-.24.28-.24.27-.23.27-.23.27-.23.28-.22.28-.23.28-.22.3-.23.27-.22.3-.22.27-.22.3-.2.28-.23.3-.2.28-.2.3-.22.3-.2.3-.22.3-.2.28-.2.3-.2.3-.2.3-.2.3-.2.32-.2.3-.2.3-.18.32-.2.3-.18.32-.18.3-.18.32-.2.32-.17.3-.17.33-.18.3-.17.33-.18.32-.17.32-.16.33-.17.32-.17.32-.16.33-.16.33-.16.33-.16.33-.15.33-.14.32-.16.33-.15.33-.14.34-.14.34-.14.33-.14.33-.14.34-.14.34-.13.35-.14.34-.13.34-.13.34-.13.34-.12.35-.12.35-.13.35-.1.34-.13.36-.12.35-.1.37-.12.35-.1.35-.12.36-.1.35-.1.36-.1.36-.1.35-.1.36-.1.37-.08.36-.1.36-.08.36-.08.36-.08.36-.1.37-.06.36-.08.38-.07.37-.08.37-.06.36-.06.37-.07.37-.06.38-.05.37-.06.37-.06.37-.06.4-.05.36-.05.38-.04.37-.05.4-.05.37-.04.38-.03.38-.03L55 .2l.4-.02.37-.03.38-.03.38-.02.38-.02.4-.02.38-.02h.4l.37-.02h.77l.4-.02h.78zm-.75 6.67h-1.02l-.34.02h-.34l-.35.02-.35.02h-.34l-.33.03-.34.03-.34.02-.34.03-.34.03-.34.03-.34.04-.33.04-.33.03-.33.05-.34.05-.33.04-.33.04-.33.05-.32.05-.34.05-.32.06-.33.04-.34.06-.33.06-.33.06-.32.06-.33.07-.32.07-.33.07-.32.06-.32.07-.32.08-.33.1-.3.06-.33.1-.3.07-.33.08-.32.1-.32.1-.3.08-.33.1-.3.1-.32.08-.32.1-.3.1-.32.1-.3.1-.3.1-.3.12-.32.1-.3.12-.3.12-.32.1-.3.13-.3.12-.3.12-.3.1-.3.13-.3.13-.3.12-.3.13-.3.14-.3.14-.3.13-.28.15-.3.14-.3.13-.28.14-.3.14-.28.15-.3.15-.27.15-.3.15-.27.15-.3.15-.27.16-.27.15-.28.17-.28.16-.28.16-.3.16-.26.16-.28.17-.27.16-.3.17-.26.17-.27.17-.27.17-.27.18-.27.18-.26.18-.27.18-.26.18-.27.18-.26.2-.26.17-.26.18-.26.2-.26.18-.25.2-.26.2-.26.2-.25.18-.27.2-.25.2-.25.2-.24.2-.26.2-.24.22-.25.2-.24.22-.23.2-.24.22-.24.2-.25.23-.24.2-.22.23-.24.22-.23.22-.22.22-.23.23-.23.22-.22.23-.23.22-.22.23-.23.23-.22.23-.22.24-.22.24-.22.23-.2.25-.23.24-.2.23-.2.24-.22.24-.2.25-.22.25-.2.24-.2.25-.2.23-.22.25-.2.25-.2.26-.2.24-.2.25-.18.25-.2.25-.2.26-.18.26-.2.26-.17.26-.18.26-.18.27-.18.26-.18.27-.18.26-.18.27-.18.27-.17.27-.17.27-.17.27-.17.3-.17.26-.18.28-.16.27-.17.3-.17.27-.16.28-.16.28-.14.28-.16.3-.15.28-.15.28-.15.3-.15.27-.15.3-.14.28-.13.3-.14.3-.14.28-.15.3-.14.3-.12.28-.14.3-.13.3-.12.3-.12.3-.13.3-.12.3-.1.3-.13.3-.12.3-.12.3-.1.3-.13.3-.1.32-.12.3-.1.3-.1.32-.12.3-.1.32-.1.3-.1.33-.1.3-.1.32-.08.32-.1.3-.08.32-.1.32-.07.32-.08.3-.1.33-.06.3-.1.34-.07.32-.07.32-.07.32-.08.33-.07.32-.07.33-.06.32-.06.33-.06.33-.06.33-.05.32-.07.32-.05.34-.05.33-.05.34-.04.33-.04.33-.05.34-.04.33-.02.34-.04.34-.03.34-.02.34-.03.33-.03.34-.02.33-.03.34-.02.34v.35l-.03.34v.34l-.03.34-.02.34v3.1l.03.34.02.35.02.35v.34l.03.33.03.34.02.34.03.35.03.33.03.34.04.34.04.33.03.33.05.33.05.34.04.33.04.33.05.33.05.32.05.33.06.33.04.33.06.34.06.33.06.33.06.32.07.33.07.32.07.33.06.32.07.32.08.32.1.32.06.32.1.32.07.32.08.32.1.32.1.3.08.33.1.32.1.32.08.3.1.32.1.32.1.3.1.32.1.3.12.3.1.32.12.3.12.3.1.32.13.3.12.3.12.3.1.3.13.3.13.3.12.3.13.3.14.3.14.3.13.3.15.28.14.3.13.3.14.28.14.3.15.28.15.28.15.3.15.28.15.28.15.3.16.27.15.27.17.28.16.28.16.28.16.3.16.26.17.28.16.27.17.3.17.26.17.27.17.27.18.27.18.27.18.26.18.27.18.26.18.27.2.26.17.26.18.26.2.26.18.26.2.25.2.26.2.26.18.25.2.26.2.26.2.24.2.25.2.26.22.24.2.25.22.24.2.23.22.24.2.24.23.25.2.24.23.22.22.23.22.24.22.22.23.23.22.23.23.22.22.23.23.22.23.23.23.22.24.22.24.22.23.22.25.2.24.23.23.2.24.2.24.22.25.2.25.22.24.2.25.2.23.2.25.2.25.22.26.2.24.2.25.2.25.18.25.2.26.2.26.18.26.18.26.2.26.18.27.18.26.18.27.18.26.18.27.18.27.18.27.17.27.17.27.17.3.17.26.17.28.18.27.16.3.17.27.17.28.16.28.15.28.16.3.16.28.15.28.15.3.15.27.15.3.14.28.15.3.13.3.14.28.14.3.15.3.14.28.12.3.13.3.14.3.1.3.14.3.13.3.12.3.1.3.13.3.12.3.12.3.1.3.13.32.1.3.12.3.1.32.1.3.1.32.12.3.1.33.1.3.1.32.1.32.08.3.1.32.08.32.08.32.1.3.07.33.08.3.08.34.1.32.07.32.07.32.07.33.08.32.07.33.06.32.08.33.06.33.06.33.06.32.05.32.07.34.05.33.05.34.04.33.06.33.04.34.05.33.03.34.04.34.04.34.03.34.02.33.03.34.03.33.02.34.02.34.02.35.02.34.02h.34l.34.03.34.02h3.1l.34-.03.35-.02.35-.02.34-.02.33-.02.34-.02.34-.02.35-.03.33-.03.34-.03.34-.04.33-.04.33-.04.33-.03.34-.05.33-.04.33-.05.33-.03.32-.05.33-.05.33-.06.33-.04.34-.06.33-.06.33-.06.32-.07.33-.05.32-.07.33-.07.32-.06.32-.07.32-.08.32-.1.32-.07.32-.08.32-.08.32-.1.32-.07.3-.1.33-.08.32-.1.32-.1.3-.1.32-.08.32-.1.3-.1.32-.1.3-.12.3-.1.32-.1.3-.12.3-.12.32-.1.3-.13.3-.12.3-.12.3-.1.3-.13.3-.13.3-.13.3-.1.3-.15.3-.13.3-.13.28-.15.3-.14.3-.13.28-.14.3-.14.28-.16.28-.14.3-.15.28-.15.28-.15.3-.15.27-.16.27-.16.28-.15.28-.16.28-.16.3-.16.26-.16.28-.17.27-.16.3-.17.26-.17.27-.17.27-.17.27-.18.27-.18.26-.18.27-.18.26-.18.27-.18.26-.2.26-.18.26-.18.26-.2.26-.2.25-.18.26-.2.26-.2.25-.2.26-.18.26-.2.24-.2.25-.2.26-.2.24-.22.25-.2.24-.22.23-.2.24-.22.24-.2.25-.23.24-.2.22-.23.24-.22.23-.22.22-.22.23-.23.23-.22.22-.23.23-.22.22-.23.23-.23.22-.23.22-.25.22-.23.22-.23.2-.25.23-.24.2-.23.2-.24.22-.24.2-.25.22-.25.2-.24.2-.25.2-.24.2-.24.22-.26.2-.25.2-.24.2-.25.18-.25.2-.25.2-.26.18-.26.18-.26.2-.26.18-.26.18-.27.18-.26.18-.27.18-.26.18-.27.18-.27.17-.27.17-.27.17-.27.17-.3.17-.26.18-.28.16-.27.17-.3.17-.27.16-.28.15-.28.16-.28.16-.3.15-.28.15-.28.15-.3.15-.28.14-.28.15-.3.13-.28.14-.3.14-.28.15-.3.14-.3.12-.3.13-.28.14-.3.1-.3.14-.3.13-.3.12-.3.1-.3.13-.3.12-.3.12-.3.1-.3.13-.3.1-.32.12-.3.1-.3.1-.32.1-.3.12-.32.1-.32.1-.3.1-.32.1-.32.08-.3.1-.33.08-.32.08-.32.1-.32.07-.32.08-.32.08-.32.1-.32.07-.32.07-.32.07-.32.08-.33.07-.32.06-.33.08-.32.06-.33.06-.33.06-.33.05-.32.07-.33.05-.33.05-.33.04-.34.06-.33.04-.33.05-.34.03-.33.04-.34.04-.34.03-.34.02-.34.03-.34.03-.33.02-.33.02-.34.02-.34.02-.35.02-.34v-.34l.03-.34.02-.34v-3.1l-.03-.34-.02-.35-.02-.35-.02-.34-.02-.33-.02-.34-.02-.34-.03-.34-.03-.34-.03-.34-.04-.34-.04-.33-.04-.33-.03-.33-.05-.34-.04-.33-.05-.33-.03-.33-.05-.32-.05-.34-.06-.32-.04-.33-.06-.34-.06-.33-.06-.33-.07-.32-.05-.33-.07-.32-.07-.33-.06-.32-.07-.32-.08-.32-.1-.33-.07-.3-.08-.33-.08-.3-.1-.33-.07-.32-.1-.32-.08-.3-.1-.33-.1-.3-.1-.32-.08-.32-.1-.3-.1-.32-.1-.3-.12-.3-.1-.3-.1-.32-.12-.3-.12-.3-.1-.32-.13-.3-.12-.3-.12-.3-.1-.3-.13-.3-.13-.3-.13-.3-.1-.3-.15-.3-.13-.3-.13-.3-.15-.28-.14-.3-.13-.3-.14-.28-.14-.3-.16-.28-.14-.3-.15-.27-.15-.3-.15-.27-.15-.3-.16-.27-.16-.27-.15-.28-.16-.28-.16-.28-.16-.3-.16-.26-.17-.28-.16-.27-.17-.3-.17-.26-.17-.27-.17-.27-.18-.27-.18-.27-.18-.26-.18-.27-.18-.26-.18-.27-.2-.26-.18-.26-.18-.26-.2-.26-.2-.26-.18-.25-.2-.26-.2-.26-.2-.25-.18-.27-.2-.25-.2-.25-.2-.24-.22-.26-.2-.24-.2-.25-.22-.24-.2-.23-.22-.24-.2-.24-.23-.25-.2-.24-.23-.22-.22-.24-.22-.23-.22-.22-.23-.23-.22-.23-.23-.22-.22-.23-.23-.22-.23-.23-.23-.22-.25-.22-.23-.22-.23-.22-.25-.2-.24-.23-.23-.2-.24-.2-.24-.22-.25-.2-.25-.22-.24-.2-.25-.2-.24-.2-.24-.22-.26-.2-.25-.2-.24-.2-.25-.2-.25-.18-.25-.2-.26-.2-.26-.18-.26-.2-.26-.17-.26-.18-.27-.18-.26-.18-.27-.18-.26-.18-.27-.18-.27-.18-.27-.17-.27-.17-.27-.17-.3-.17-.26-.17-.28-.18-.27-.16-.3-.17-.27-.17-.28-.16-.28-.16-.28-.14-.3-.16-.28-.15-.28-.15-.3-.15-.28-.15-.28-.15-.3-.14-.28-.13-.3-.14-.28-.14-.3-.15-.3-.14-.3-.12-.28-.14-.3-.13-.3-.12-.3-.12-.3-.13-.3-.12-.3-.1-.3-.13-.3-.12-.3-.12-.3-.1-.3-.13-.32-.1-.3-.12-.3-.1-.32-.1-.3-.12-.32-.1-.32-.1-.3-.1-.32-.1-.32-.1-.3-.08-.33-.1-.32-.08-.32-.1-.32-.07-.32-.08-.32-.1-.32-.06-.32-.1-.32-.07-.32-.07-.32-.07-.33-.08-.32-.07-.33-.07-.32-.06-.33-.06-.33-.06-.33-.06-.32-.05-.33-.07-.33-.05-.33-.05-.34-.05-.33-.04-.33-.04-.34-.05-.33-.04L65.8 7l-.34-.04-.34-.03-.34-.02-.34-.03-.33-.03-.33-.02-.34-.03-.34-.02h-.35l-.34-.03h-.34l-.34-.03-.34-.02H59.64z"/>
  <path fill="#00454d" d="M86.08 36.76c-.8-3.65-3.28-5.1-7.04-6.55-3.66-1.45-12.5-3.15-19.03-3.2-6.54.05-15.37 1.76-19.06 3.2-3.73 1.44-6.24 2.9-7 6.54l-2.8 20.15v27.77h4.84V89c-.02 5.33 8.3 5.33 8.32.02v-4.35h31.42V89c-.02 5.33 8.3 5.33 8.3.02v-4.35h4.85V56.9l-2.8-20.14zM48.12 32.1H71.9c2.32 0 2.32 3.27 0 3.28H48.13c-2.35 0-2.35-3.24 0-3.24v-.04zm-8 43.87c-2.2 0-4-1.67-4-3.74 0-2.05 1.78-3.72 3.94-3.72 2.18 0 4 1.68 4 3.73-.03 2.08-1.82 3.73-4.03 3.74h.08zM59.7 59h-21.2c-2.1.02-2.5-1.38-2.32-2.76l2.2-14.63c.3-1.76.94-2.92 3.44-2.94H78.2c2.53 0 3.14 1.18 3.45 2.94l2.24 14.63c.2 1.4-.25 2.77-2.3 2.77H59.73zm20.16 16.97c-2.15 0-4-1.67-4-3.74 0-2.05 1.84-3.72 4-3.72 2.23 0 4 1.68 4.08 3.73 0 2.08-1.78 3.73-4 3.74h-.08z"/>
  <circle cx="96" cy="96" r="24" fill="#ef2c2e"/>
  <path fill="#fff" d="M87.6 105.38c-1.4 0-2.75-.24-4.03-.72-1.3-.48-2.48-1.2-3.57-2.2l1.92-2.3c.9.77 1.8 1.36 2.7 1.77.9.4 1.92.6 3.06.6 1 0 1.78-.2 2.36-.62.58-.4.87-.96.87-1.65v-.06c0-.34-.04-.63-.16-.88-.1-.25-.32-.5-.62-.7-.3-.24-.73-.45-1.26-.64-.53-.2-1.22-.38-2.08-.57-.97-.22-1.84-.47-2.6-.76-.75-.3-1.4-.63-1.9-1.04-.5-.4-.9-.9-1.18-1.5-.26-.6-.4-1.3-.4-2.14v-.05c0-.77.15-1.5.46-2.14.3-.65.74-1.2 1.28-1.67.55-.47 1.2-.83 1.96-1.1.76-.25 1.6-.38 2.5-.38 1.34 0 2.54.2 3.6.6 1.08.38 2.08.95 3.02 1.7l-1.72 2.42c-.83-.6-1.66-1.08-2.48-1.4-.8-.32-1.64-.48-2.47-.48-.94 0-1.67.2-2.2.63-.5.4-.77.92-.77 1.52v.05c0 .35.06.66.18.93s.34.5.67.73c.32.22.76.42 1.33.6.57.2 1.28.4 2.15.6.97.25 1.82.52 2.56.82.74.3 1.36.66 1.84 1.08.5.42.86.92 1.1 1.48.27.58.4 1.23.4 1.98v.05c0 .86-.17 1.62-.5 2.3-.3.67-.75 1.25-1.32 1.72-.56.46-1.25.82-2.05 1.06-.8.26-1.67.38-2.63.38M104.4 105.43c-1.44 0-2.73-.24-3.9-.72-1.16-.46-2.15-1.12-2.98-1.97-.82-.84-1.46-1.83-1.9-2.97-.46-1.13-.7-2.37-.7-3.7V96c0-1.27.24-2.48.7-3.62.47-1.15 1.12-2.15 1.96-3 .84-.87 1.84-1.55 3-2.06 1.15-.5 2.4-.75 3.78-.75.8 0 1.53.06 2.18.17.65.1 1.25.27 1.8.48.56.2 1.1.47 1.58.77.5.3.98.64 1.45 1.04l-2.03 2.43c-.35-.3-.7-.57-1.07-.8-.37-.25-.75-.46-1.15-.62-.4-.17-.83-.3-1.3-.4-.5-.1-1-.14-1.6-.14-.82 0-1.6.2-2.32.54-.72.34-1.35.8-1.88 1.4-.53.57-.94 1.26-1.25 2.04-.3.78-.45 1.6-.45 2.48V96c0 .95.14 1.82.44 2.62s.7 1.5 1.26 2.07c.55.56 1.2 1 1.95 1.34.75.33 1.6.5 2.53.5.87 0 1.68-.13 2.43-.38.76-.25 1.4-.6 1.97-1V97.7h-4.67v-2.8H112v7.67c-.46.37-.96.74-1.5 1.1-.55.33-1.14.64-1.77.9-.64.26-1.32.46-2.05.6-.73.16-1.5.23-2.3.23"/>
</svg>
