<svg xmlns="http://www.w3.org/2000/svg" width="200" height="200" viewBox="0 0 150 150">
  <path d="M10.73 36.35C32.06.87 78.17-10.6 113.65 10.73c35.48 21.33 46.96 67.44 25.62 102.92-21.33 35.48-67.44 46.96-102.92 25.62C.87 117.94-10.6 71.83 10.73 36.35z" fill="#444"/>
  <path d="M18.44 41C37.2 9.76 77.8-.34 109 18.43 140.24 37.2 150.34 77.8 131.57 109 112.8 140.24 72.2 150.34 41 131.57 9.76 112.8-.34 72.2 18.43 41z" fill="#fff"/>
  <path d="M108.86 44.8c-1.02-4.73-4.26-6.62-9.14-8.5-4.76-1.9-16.22-4.1-24.72-4.17-8.5.06-19.97 2.28-24.77 4.15-4.84 1.88-8.1 3.77-9.08 8.5L37.5 70.95v36.08h6.3v5.64c-.03 6.9 10.78 6.9 10.8 0v-5.64h40.8v5.64c-.02 6.9 10.8 6.9 10.8 0v-5.64h6.28V70.95l-3.64-26.15zm-49.3-6.05h30.88c3.02 0 3.02 4.25 0 4.26H59.57c-3.05 0-3.05-4.2 0-4.2zm-10.4 56.98c-2.84 0-5.17-2.17-5.17-4.86 0-2.66 2.3-4.83 5.1-4.83 2.84 0 5.2 2.17 5.2 4.83-.04 2.7-2.37 4.85-5.24 4.86zM74.63 73.7H47.08c-2.7.02-3.24-1.8-3-3.6l2.85-19c.4-2.3 1.23-3.8 4.48-3.83h47.2c3.3.02 4.1 1.53 4.5 3.82l2.9 19c.26 1.8-.3 3.6-2.96 3.6H74.7zm26.18 22.03c-2.8 0-5.2-2.17-5.2-4.86 0-2.66 2.4-4.83 5.2-4.83 2.9 0 5.2 2.17 5.3 4.83 0 2.7-2.32 4.85-5.2 4.86zm0 0z" fill="#444"/>
</svg>
